<svg width="128" height="97" viewBox="0 0 128 97" fill="none" xmlns="http://www.w3.org/2000/svg">
<path d="M31.6836 48.1582C31.6836 56.9072 24.5908 64 15.8418 64C7.09277 64 0 56.9072 0 48.1582C0 39.4092 7.09277 32.3164 15.8418 32.3164C24.5908 32.3164 31.6836 39.4092 31.6836 48.1582Z" fill="#C76D33"/>
<path d="M23.4063 48.1582C23.4063 52.3359 20.0195 55.7227 15.8418 55.7227C11.6641 55.7227 8.27734 52.3359 8.27734 48.1582C8.27734 43.9805 11.6641 40.5938 15.8418 40.5938C20.0195 40.5938 23.4063 43.9805 23.4063 48.1582Z" fill="#FED2A4"/>
<path d="M128 48.1582C128 56.9072 120.907 64 112.158 64C103.409 64 96.3164 56.9072 96.3164 48.1582C96.3164 39.4092 103.409 32.3164 112.158 32.3164C120.907 32.3164 128 39.4092 128 48.1582Z" fill="#C76D33"/>
<path d="M119.723 48.1582C119.723 52.3359 116.336 55.7227 112.158 55.7227C107.98 55.7227 104.594 52.3359 104.594 48.1582C104.594 43.9805 107.98 40.5938 112.158 40.5938C116.336 40.5938 119.723 43.9805 119.723 48.1582Z" fill="#FED2A4"/>
<path d="M112.158 48.1582C112.158 74.7549 90.5967 96.3164 64 96.3164C37.4033 96.3164 15.8418 74.7549 15.8418 48.1582C15.8418 21.5615 37.4033 0 64 0C90.5967 0 112.158 21.5615 112.158 48.1582Z" fill="#DE8957"/>
<path d="M65.5684 22.0703C64.6602 22.8437 63.3359 22.8457 62.4277 22.0713C51.832 13.0371 26.626 15.4785 25.8887 46.7432C25.3789 68.3398 42.5928 86.3935 64.1953 86.2832C85.127 86.1758 102.122 69.1143 102.122 48.1582C102.122 15.5557 76.3232 12.9033 65.5684 22.0703Z" fill="#FED2A4"/>
<path d="M33.6152 46.7432C34.0586 27.9043 43.3877 19.5342 53.0508 17.8301C41.3408 15.7744 26.4522 22.8213 25.8887 46.7432C25.3789 68.3399 42.5928 86.3936 64.1953 86.2832C65.4326 86.2764 66.6543 86.209 67.8613 86.0869C48.2041 84.084 33.1377 66.9678 33.6152 46.7432Z" fill="#FFBD86"/>
<path d="M83.8135 48.9062C82.7471 48.9062 81.8818 48.042 81.8818 46.9746V43.1221C81.8818 42.0557 82.7471 41.1904 83.8135 41.1904C84.8809 41.1904 85.7451 42.0557 85.7451 43.1221V46.9746C85.7451 48.042 84.8809 48.9062 83.8135 48.9062Z" fill="#333A41"/>
<path d="M86.4375 54.5693H81.1904C80.123 54.5693 79.2588 53.7041 79.2588 52.6377C79.2588 51.5713 80.123 50.7061 81.1904 50.7061H86.4375C87.5039 50.7061 88.3691 51.5713 88.3691 52.6377C88.3691 53.7041 87.5039 54.5693 86.4375 54.5693Z" fill="#FF8997"/>
<path d="M44.1865 48.9062C43.1191 48.9062 42.2549 48.042 42.2549 46.9746V43.1221C42.2549 42.0557 43.1191 41.1904 44.1865 41.1904C45.2529 41.1904 46.1182 42.0557 46.1182 43.1221V46.9746C46.1182 48.042 45.2529 48.9062 44.1865 48.9062Z" fill="#333A41"/>
<path d="M46.8096 54.5693H41.5625C40.4961 54.5693 39.6309 53.7041 39.6309 52.6377C39.6309 51.5713 40.4961 50.7061 41.5625 50.7061H46.8096C47.877 50.7061 48.7412 51.5713 48.7412 52.6377C48.7412 53.7041 47.877 54.5693 46.8096 54.5693Z" fill="#FF8997"/>
<path d="M64 54.3516C62.0615 54.3516 60.2402 53.5391 59.002 52.1231C58.2998 51.3204 58.3818 50.0997 59.1846 49.3975C59.9883 48.6954 61.208 48.7774 61.9102 49.5811C62.415 50.1583 63.1768 50.4883 64 50.4883C64.8242 50.4883 65.585 50.1583 66.0899 49.5811C66.792 48.7774 68.0117 48.6954 68.8154 49.3975C69.6182 50.0997 69.7002 51.3204 68.9981 52.1231C67.7598 53.5391 65.9385 54.3516 64 54.3516Z" fill="#333A41"/>
</svg>
